<?xml version="1.0" encoding="utf-8"?>
<!-- Generator: Adobe Illustrator 23.0.1, SVG Export Plug-In . SVG Version: 6.00 Build 0)  -->
<svg version="1.1"
	 id="svg1" xmlns:inkscape="http://www.inkscape.org/namespaces/inkscape" xmlns:sodipodi="http://sodipodi.sourceforge.net/DTD/sodipodi-0.dtd" xmlns:svg="http://www.w3.org/2000/svg"
	 xmlns="http://www.w3.org/2000/svg" xmlns:xlink="http://www.w3.org/1999/xlink" x="0px" y="0px" viewBox="0 0 928.6 192"
	 style="enable-background:new 0 0 928.6 192;" xml:space="preserve">
<style type="text/css">
	.st0{enable-background:new    ;}
	.st1{fill:#03D2FB;}
	.st2{fill:#0076CB;}
	.st3{fill:none;stroke:#0076CB;stroke-width:2;stroke-miterlimit:10;}
</style>
<g class="st0">
	<path class="st1" d="M330.5,55.3l-7.7,15l-35.2,69l-35.2-69l-7.7-15h16.8l7.7,15l18.4,36l18.4-36l7.7-15
		C313.7,55.3,330.5,55.3,330.5,55.3z"/>
	<path class="st1" d="M337.8,139.3v-84h15v84H337.8z"/>
	<path class="st1" d="M406.7,55.4c23.2,0,42,18.7,42,41.9c0,10.3-3.7,19.8-10,27.1c-0.7,0.8-1.6,1.7-2.4,2.5
		c-7.6,7.7-18,12.4-29.5,12.4h-42v-84L406.7,55.4z M379.7,124.4h27c14.9,0,27-12.1,27-27s-12.1-27-27-27h-27V124.4z"/>
	<path class="st1" d="M531.3,139.3h-16.8l-7.7-15l-18.4-36l-18.4,36l-7.7,15h-16.8l7.7-15l35.2-69l35.2,69L531.3,139.3z"/>
</g>
<path class="st2" d="M631.8,78.5V78c0-4.2-3.5-7.7-7.7-7.7H590c-4.2,0-7.7,3.5-7.7,7.7v0.5c0,4.2,3.5,7.7,7.7,7.7h30.2
	c7.8,0,14.8,3.4,19.6,8.6c0.4,0.4,0.6,0.7,1,1.1c3.7,4.6,6,10.4,6,16.8c0,14.6-11.9,26.5-26.5,26.5H594c-14.6,0-26.5-11.9-26.5-26.5
	h15c0,6.4,5.2,11.5,11.5,11.5h26.3c6.4,0,11.6-5.2,11.6-11.5c0-6.4-5.3-11.5-11.6-11.5H590c-6.1,0-11.6-2.4-15.7-6.4
	c-1.1-1.1-2-2.3-2.9-3.6c-2.5-3.6-4-8-4-12.8v-0.5c0-12.5,10.1-22.7,22.6-22.7h34.1c12.5,0,22.7,10.2,22.7,22.7v0.5L631.8,78.5z"/>
<path class="st2" d="M739.8,97.2c0,23.2-18.8,42-42,42s-42-18.8-42-42s18.8-42,42-42C720.9,55.2,739.8,74.1,739.8,97.2z M724.8,97.2
	c0-14.9-12.1-27-27-27s-27,12.1-27,27s12.1,27,27,27S724.8,112.1,724.8,97.2z"/>
<path class="st2" d="M832.9,55.2v15h-61.3c-4.2,0-7.7,3.5-7.7,7.7v7.8h54v15h-54.1v38.5h-14.9V77.9c0-12.5,10.1-22.7,22.6-22.7
	H832.9z"/>
<path class="st2" d="M928.6,55.3v15h-34.4v69h-15v-69h-34.4v-15C844.8,55.3,928.6,55.3,928.6,55.3z"/>
<g>
	<polygon class="st1" points="188.8,64 215.4,0.3 162.2,0.3 	"/>
	<polygon class="st3" points="187.8,64.1 134.6,191.4 80.9,191.4 2,0.8 55.3,0.8 108,126.2 133.9,64.1 	"/>
	<polyline class="st3" points="80.9,191.4 108,127.4 134.6,191.4 	"/>
	<polyline class="st3" points="133.9,64.1 160.4,127.4 108,127.4 55.4,127.4 81.2,64.1 29.3,64.1 55.3,0.8 	"/>
</g>
</svg>
